<?xml version="1.0" ?><svg id="Layer_1" style="enable-background:new 0 0 426 426;" version="1.1" viewBox="0 0 426 426" xml:space="preserve" xmlns="http://www.w3.org/2000/svg" xmlns:xlink="http://www.w3.org/1999/xlink"><style type="text/css">
	.st0{fill:#3765AF;}
	.st1{fill:#FFFFFF;}
</style><path class="st0" d="M412.5,214.3c-9.2,58.5-27.1,75.6-58.8,114.9c-31.7,33.3-77.3,88.9-141.9,85.8c-58.5-9.2-75.6-27.1-114.9-58.8  C63.6,324.5,8,278.9,11.1,214.3c9.2-58.5,27.1-75.6,58.8-114.9c31.7-33.3,77.3-88.9,141.9-85.8c58.5,9.2,75.6,27.1,114.9,58.8  C360,104.1,415.6,149.7,412.5,214.3z"/><g><path class="st1" d="M130.3,211.2c-7.2-2.1-12.1-0.3-14.2,4.6l-14.4,32.4l-14.1-32.4c-2.1-4.9-7-6.7-14.2-4.6   c-3.1,1-4.6,2.6-4.6,6.4v37.6h9.5v-37.6l14.9,32.7c1.6,3.9,4.1,5.4,8.8,5.4s6.9-1.5,8.7-5.4l14.7-32.7v37.6h9.5v-37.6   C134.9,214,133.4,212.2,130.3,211.2z"/><path class="st1" d="M178.7,249.1c-0.2,0-18,0-20.8,0c-5.3-0.1-5.6-2.8-5.6-3.9v-20.6h-9.5c0.3,0.1,0,20.7,0.1,21.2   c0,4.7,6,9,15.5,9h20.3v2.5c0,0.9,0.7,4-5.4,4.7h-30.1v6.4h29.9c4.8,0,15.1-1.8,15.1-10.1c0-0.2,0-33.9,0-33.9h-9.5V249.1z"/><path class="st1" d="M355.2,221.9c-0.7-0.7-1.5-1.3-2.1-2.1c-2.1-2.8-4.7-5.4-7.5-7.4c-2.3-1.6-7.5-3.8-8.3-6.5c0,0,0,0-0.2-0.2   c1.6-0.2,3.4-0.7,5.1-1.1c2.5-0.7,4.7-0.5,7.4-1.1c1.1-0.3,2.3-0.7,3.4-1c0-0.2,0-0.5,0-0.7c-1.3-1.3-2.3-3.1-3.6-4.3   c-3.8-3.3-7.9-6.4-12.1-9c-2.3-1.5-5.2-2.5-7.5-3.6c-0.8-0.5-2.3-0.7-2.8-1.3c-1.3-1.6-2.1-3.8-2.9-5.6c-2.1-4.1-4.1-8.5-6.1-12.8   c-1.3-2.8-2.1-5.7-3.8-8.3c-7.5-12.4-15.7-20-28.3-27.3c-2.8-1.5-5.9-2.1-9.3-2.9c-1.8,0-3.6-0.2-5.4-0.3c-1.1-0.5-2.3-2-3.4-2.6   c-4.1-2.6-14.9-8.3-18-0.8c-2,4.7,2.9,9.5,4.6,11.8c1.3,1.6,2.8,3.6,3.8,5.4c0.5,1.3,0.7,2.6,1.1,3.9c1.1,3.3,2.3,6.7,3.8,9.8   c0.8,1.5,1.6,3.1,2.8,4.6c0.7,0.8,1.6,1.1,1.8,2.5c-1,1.5-1.1,3.6-1.6,5.4c-2.6,8.2-1.6,18.5,2.1,24.5c1.1,1.8,3.9,5.9,7.7,4.3   c3.3-1.3,2.6-5.4,3.4-9.2c0.2-0.8,0-1.5,0.5-2v0.2c1,2,2,4.1,2.9,6.1c2.3,3.6,6.2,7.4,9.5,9.8c1.8,1.3,3.1,3.6,5.4,4.4v-0.2   c0,0,0,0-0.2,0c-0.5-0.7-1.1-1-1.6-1.5c-1.3-1.3-2.8-2.9-3.8-4.4c-3.1-4.1-5.7-8.7-8.2-13.3c-1.1-2.3-2.1-4.7-3.1-7   c-0.5-0.8-0.5-2.1-1.1-2.6c-1.1,1.6-2.8,2.9-3.4,4.9c-1.3,3.1-1.5,7-2,11c-0.3,0-0.2,0-0.3,0.2c-2.3-0.7-3.1-2.9-4.1-5.1   c-2.1-5.2-2.6-13.6-0.7-19.5c0.5-1.5,2.8-6.4,1.8-7.9c-0.5-1.3-2-2.1-2.8-3.3c-1-1.3-2-3.1-2.6-4.7c-1.8-4.1-2.6-8.7-4.6-12.8   c-0.8-2-2.5-3.9-3.6-5.6c-1.3-2-2.9-3.4-4.1-5.7c-0.3-0.8-0.8-2.1-0.3-2.9c0.2-0.7,0.5-0.8,1-1c1-0.8,3.6,0.2,4.6,0.7   c2.8,1.1,4.9,2.1,7.2,3.6c1,0.7,2.1,2.1,3.4,2.5c0.5,0,1,0,1.5,0c2.3,0.5,4.9,0.2,7.2,0.8c3.9,1.3,7.4,3.1,10.5,5.1   c9.5,6.1,17.5,14.7,22.7,25c0.8,1.6,1.3,3.3,2,4.9c1.5,3.6,3.4,7.2,4.9,10.8c1.5,3.4,2.9,6.9,5.2,9.8c1.1,1.5,5.4,2.3,7.5,3.1   c1.5,0.7,3.8,1.3,5.1,2c2.5,1.5,4.9,3.3,7.4,4.9c0.9,0.9,4.7,2.7,4.9,4.2c-5.9-0.2-10.3,0.5-14.2,2c-1.1,0.5-2.8,0.5-2.9,1.8   c0.7,0.7,0.7,1.5,1.1,2.3c0.8,1.5,2.5,3.4,3.8,4.4c1.5,1.1,3.1,2.3,4.7,3.4c2.8,1.8,6.1,2.8,8.8,4.6c1.6,1,3.3,2.3,4.7,3.4   c0.8,0.7,1.3,1.5,2.3,2v-0.2C355.8,223.5,355.6,222.6,355.2,221.9z"/><path class="st1" d="M270.6,137.5c0,0,0,0,0,0.2c0,0,0,0,0.2,0c0.7,1.1,1.6,2,2.3,2.9c0.7,1.1,1.1,2.3,1.6,3.4l0.2-0.2   c1-0.7,1.5-2,1.5-3.6c-0.5-0.5-0.5-1-0.8-1.5c-0.6-0.7-1.6-1-2.1-1.5C272.2,137.2,271.4,137.4,270.6,137.5z"/><path class="st1" d="M203.8,212.1c-5.6,1.8-8.2,4.6-8.2,9.5v5.2c0,4.3,4.7,8,12.9,8.8c0.8,0,1.8,0,2.8,0h9.8c0.3,0,0.7,0,1,0   c2.9,0.3,4.3,0.8,5.2,2c0.7,0.7,0.7,1.1,0.7,1.8v5.6c0,0.7-0.5,1.5-1.3,2.3s-2.3,1.3-4.1,1.3c-0.3,0-0.7,0-1,0h-26.2v6.6h0.1H223   c3.3,0,6.2-0.7,8.8-1.8c4.1-2,6.1-4.4,6.1-7.9v-7c0-2.8-2.3-5.2-6.7-7c-2.3-0.8-5.2-1.3-8.2-1.3h-11.5c-3.9,0-5.7-1.1-6.2-3.8   c0-0.3,0-0.7,0-0.8v-4.3c0-0.2,0-0.5,0-0.8c0.5-2,1.5-2.5,4.9-2.8c0.3,0,0.7,0,0.8,0h27.2v-6.4h-26.7   C207.6,211.3,205.6,211.5,203.8,212.1z"/><path class="st1" d="M306.9,243.9v-32.7h-9.5l-0.2,32.8c0,6.5,4.9,10.1,14.7,10.8c1,0,1.8,0.2,2.8,0.2h24.9v-6.4h-25   C309,248.6,306.9,247.3,306.9,243.9z"/><path class="st1" d="M291.5,244.4v-22.6c0-5.7-3.9-9.2-11.9-10.3c-1-0.2-1.8-0.2-2.8-0.2h-18.2c-0.8,0-1.8,0.2-2.6,0.2   c-8,1-12.1,4.6-12.1,10.3v22.6c0,5.2,2.9,8.5,9.4,10.2c2,0.5,4,0.7,5.6,0.7H269l7.7-0.5l7.5,6.9h11l-9.3-8.5   C289.9,251.6,291.5,249.1,291.5,244.4z M282.3,222.3v21.6c0,0.3,0,0.7,0,1c-0.4,1.3-1.2,2.4-2.5,3.1l-6.9-6.2h-11l7.9,7.2h-8.7   c-3.8,0-6.2-1.5-6.7-4.1c0-0.3-0.2-0.7-0.2-1v-21.6c0-2.9,2.7-4.7,7-4.7h14.4c3.8,0,6.2,1.4,6.7,3.9   C282.3,221.6,282.3,222,282.3,222.3z"/><polygon class="st1" points="352.2,253.2 350.4,248.8 348.4,248.8 348.4,255.2 349.7,255.2 349.7,250.3 351.5,255.2 352.5,255.2    354.3,250.3 354.5,255.2 355.8,255.2 355.8,248.8 353.8,248.8  "/><polygon class="st1" points="341.9,249.8 343.9,249.8 343.9,255.2 343.9,255.2 345.2,255.2 345.2,249.8 347,249.8 347,248.7    341.9,248.7  "/></g></svg>